<mxfile host="app.diagrams.net" agent="Mozilla/5.0 (Windows NT 10.0; Win64; x64; rv:144.0) Gecko/20100101 Firefox/144.0" version="28.2.7">
  <diagram name="Page-1" id="2cc2dc42-3aac-f2a9-1cec-7a8b7cbee084">
    <mxGraphModel dx="1554" dy="850" grid="1" gridSize="10" guides="1" tooltips="1" connect="1" arrows="1" fold="1" page="1" pageScale="1" pageWidth="1100" pageHeight="850" background="none" math="0" shadow="0">
      <root>
        <mxCell id="0" />
        <mxCell id="1" parent="0" />
        <mxCell id="7026571954dc6520-1" value="" style="strokeWidth=1;shadow=0;dashed=0;align=center;html=1;shape=mxgraph.mockup.containers.browserWindow;rSize=0;strokeColor=#666666;mainText=,;recursiveResize=0;rounded=0;labelBackgroundColor=none;fontFamily=Verdana;fontSize=12" parent="1" vertex="1">
          <mxGeometry x="30" y="20" width="1050" height="820" as="geometry" />
        </mxCell>
        <mxCell id="7026571954dc6520-2" value="Match starten" style="strokeWidth=1;shadow=0;dashed=0;align=center;html=1;shape=mxgraph.mockup.containers.anchor;fontSize=17;fontColor=#666666;align=left;" parent="7026571954dc6520-1" vertex="1">
          <mxGeometry x="60" y="12" width="110" height="26" as="geometry" />
        </mxCell>
        <mxCell id="7026571954dc6520-3" value="https://hexfields-studio.github.io/HexfieldsDominion/play" style="strokeWidth=1;shadow=0;dashed=0;align=center;html=1;shape=mxgraph.mockup.containers.anchor;rSize=0;fontSize=17;fontColor=#666666;align=left;" parent="7026571954dc6520-1" vertex="1">
          <mxGeometry x="130" y="60" width="250" height="26" as="geometry" />
        </mxCell>
        <mxCell id="7026571954dc6520-4" value="Bereit fÃ¼r ein Match?" style="text;html=1;points=[];align=left;verticalAlign=top;spacingTop=-4;fontSize=30;fontFamily=Verdana" parent="7026571954dc6520-1" vertex="1">
          <mxGeometry x="360" y="220" width="320" height="40" as="geometry" />
        </mxCell>
        <mxCell id="fFjievGGbrHmdc-88DgR-1" value="&lt;font style=&quot;font-size: 25px;&quot;&gt;Lobby erstellen&lt;/font&gt;" style="rounded=1;whiteSpace=wrap;html=1;fillColor=#0050ef;fontColor=#ffffff;strokeColor=#001DBC;" vertex="1" parent="7026571954dc6520-1">
          <mxGeometry x="320" y="350" width="400" height="40" as="geometry" />
        </mxCell>
        <mxCell id="fFjievGGbrHmdc-88DgR-2" value="&lt;font style=&quot;font-size: 25px;&quot;&gt;Lobby beitreten&lt;/font&gt;" style="rounded=1;whiteSpace=wrap;html=1;fillColor=#008a00;fontColor=#ffffff;strokeColor=#005700;" vertex="1" parent="7026571954dc6520-1">
          <mxGeometry x="320" y="385" width="400" height="40" as="geometry" />
        </mxCell>
        <mxCell id="fFjievGGbrHmdc-88DgR-3" value="" style="sketch=0;outlineConnect=0;fontColor=#232F3E;gradientColor=none;fillColor=#232F3D;strokeColor=none;dashed=0;verticalLabelPosition=bottom;verticalAlign=top;align=center;html=1;fontSize=12;fontStyle=0;aspect=fixed;pointerEvents=1;shape=mxgraph.aws4.gear;" vertex="1" parent="7026571954dc6520-1">
          <mxGeometry x="1000" y="130" width="28" height="28" as="geometry" />
        </mxCell>
        <mxCell id="fFjievGGbrHmdc-88DgR-4" value="" style="rounded=1;whiteSpace=wrap;html=1;fillColor=light-dark(#000000,#1A1A1A);shadow=0;glass=0;perimeterSpacing=0;strokeColor=light-dark(#000000, #6e6e6e);arcSize=8;" vertex="1" parent="7026571954dc6520-1">
          <mxGeometry x="235" y="240" width="570" height="340" as="geometry" />
        </mxCell>
        <mxCell id="fFjievGGbrHmdc-88DgR-5" value="&lt;font style=&quot;font-size: 26px;&quot;&gt;Lobby beitreten&lt;/font&gt;" style="text;html=1;points=[];align=left;verticalAlign=top;spacingTop=-4;fontSize=30;fontFamily=Verdana" vertex="1" parent="7026571954dc6520-1">
          <mxGeometry x="416" y="250" width="208" height="40" as="geometry" />
        </mxCell>
        <mxCell id="fFjievGGbrHmdc-88DgR-6" value="&lt;font style=&quot;font-size: 16px;&quot;&gt;Beitreten&lt;/font&gt;" style="rounded=1;whiteSpace=wrap;html=1;" vertex="1" parent="7026571954dc6520-1">
          <mxGeometry x="385" y="520" width="270" height="40" as="geometry" />
        </mxCell>
        <mxCell id="fFjievGGbrHmdc-88DgR-8" value="" style="shape=mxgraph.sysml.x;" vertex="1" parent="7026571954dc6520-1">
          <mxGeometry x="758" y="260" width="20" height="20" as="geometry" />
        </mxCell>
        <mxCell id="fFjievGGbrHmdc-88DgR-9" value="&lt;div align=&quot;center&quot;&gt;&lt;font style=&quot;color: light-dark(rgb(0, 0, 0), rgb(102, 102, 102)); font-size: 20px;&quot;&gt;Lobbycode&lt;/font&gt;&lt;/div&gt;" style="rounded=0;whiteSpace=wrap;html=1;align=center;" vertex="1" parent="7026571954dc6520-1">
          <mxGeometry x="410" y="385" width="220" height="50" as="geometry" />
        </mxCell>
        <mxCell id="fFjievGGbrHmdc-88DgR-11" value="&lt;font style=&quot;font-size: 17px;&quot;&gt;Lobbycode eingeben:&lt;/font&gt;" style="text;html=1;whiteSpace=wrap;strokeColor=none;fillColor=none;align=left;verticalAlign=middle;rounded=0;" vertex="1" parent="7026571954dc6520-1">
          <mxGeometry x="438" y="350" width="165" height="30" as="geometry" />
        </mxCell>
      </root>
    </mxGraphModel>
  </diagram>
</mxfile>
